<?xml version="1.0" encoding="UTF-8"?>
<svg enable-background="new 0 0 512 512" version="1.1" viewBox="0 0 512 512" xml:space="preserve" xmlns="http://www.w3.org/2000/svg">
		<path d="m493.56 431.87l-58.716-125.91c-32.421 47.207-83.042 80.822-141.64 91.015l49.152 105.4c6.284 13.487 25.732 12.587 30.793-1.341l25.193-69.204 5.192-2.421 69.205 25.193c13.887 5.096 27.096-9.296 20.82-22.73z"/>
		<path d="m256 0c-101.19 0-183.52 82.325-183.52 183.52s82.331 183.52 183.52 183.52c101.19 0 183.52-82.325 183.52-183.52s-82.329-183.52-183.52-183.52zm89.294 170.03l-32.541 31.722 7.69 44.804c2.351 13.679-12.062 23.956-24.211 17.585l-40.231-21.148-40.231 21.147c-12.219 6.416-26.549-3.982-24.211-17.585l7.69-44.804-32.541-31.722c-9.89-9.642-4.401-26.473 9.245-28.456l44.977-6.533 20.116-40.753c6.087-12.376 23.819-12.387 29.913 0l20.116 40.753 44.977 6.533c13.644 1.982 19.132 18.814 9.242 28.457z"/>
		<path d="m77.156 305.96l-58.716 125.91c-6.305 13.497 7.023 27.81 20.821 22.727l69.204-25.193 5.192 2.421 25.193 69.205c5.051 13.899 24.496 14.857 30.793 1.342l49.152-105.4c-58.597-10.192-109.22-43.806-141.64-91.014z"/>
</svg>
